
<svg width="1096px" height="1255px" viewBox="0 0 1096 1255" version="1.1" xmlns="http://www.w3.org/2000/svg" xmlns:xlink="http://www.w3.org/1999/xlink">
    <!-- Generator: Sketch 46.2 (44496) - http://www.bohemiancoding.com/sketch -->
    <desc>Created with Sketch.</desc>
    <defs></defs>
    <g id="Page-1" stroke="none" stroke-width="1" fill="none" fill-rule="evenodd">
        <g id="Group">
            <polygon id="Path" fill="#5DABAA" points="555.820312 0 553 245.339844 1090.56445 322.527344"></polygon>
            <polygon id="Path-2" fill="#4F9897" points="553 255 876.884766 805.15625 1089.11914 329.783203"></polygon>
            <polygon id="Path-3" fill="#415D5D" points="1095.21289 338 1095.21289 943.705078 882 815.37793"></polygon>
            <polygon id="Path-4" fill="#415D5D" points="877.117188 822 1086.29004 951.264648 559 1254.4502"></polygon>
            <polygon id="Path" fill="#C2EFEE" transform="translate(274.217773, 161.263672) scale(-1, 1) translate(-274.217773, -161.263672) " points="8.25585938 0 5.43554688 245.339844 543 322.527344"></polygon>
            <polygon id="Path-2" fill="#A6CBCB" transform="translate(274.940430, 530.078125) scale(-1, 1) translate(-274.940430, -530.078125) " points="6.88085938 255 330.765625 805.15625 543 329.783203"></polygon>
            <polygon id="Path-3" fill="#C2EFEE" transform="translate(107.393555, 640.852539) scale(-1, 1) translate(-107.393555, -640.852539) " points="214 338 214 943.705078 0.787109375 815.37793"></polygon>
            <polygon id="Path-4" fill="#A6CBCB" transform="translate(273.354980, 1038.225098) scale(-1, 1) translate(-273.354980, -1038.225098) " points="327.827148 822 537 951.264648 9.70996094 1254.4502"></polygon>
            <polygon id="Path-5" fill="#415D5D" points="227 814 868.535156 814 547.767578 1254.3457"></polygon>
            <polygon id="Path-6" fill="#FFFFFF" points="547.968842 264 233 804.460914 863 804.460914"></polygon>
        </g>
    </g>
</svg>
